<?xml version="1.0" standalone="no"?>
<!DOCTYPE svg PUBLIC "-//W3C//DTD SVG 20010904//EN"
 "http://www.w3.org/TR/2001/REC-SVG-20010904/DTD/svg10.dtd">
<svg version="1.0" xmlns="http://www.w3.org/2000/svg"
 width="128.000000pt" height="128.000000pt" viewBox="0 0 128.000000 128.000000"
 preserveAspectRatio="xMidYMid meet">
<metadata>
Created by potrace 1.11, written by Peter Selinger 2001-2013
</metadata>
<g transform="translate(0.000000,128.000000) scale(0.100000,-0.100000)"
fill="#000000" stroke="none">
<path d="M430 1269 c-30 -5 -98 -23 -150 -41 -81 -28 -97 -38 -116 -68 -13
-19 -33 -48 -46 -65 -147 -184 -147 -433 -1 -624 l33 -44 0 -151 c0 -237 -12
-230 393 -234 l298 -3 52 27 c114 58 268 210 323 316 l24 47 0 341 c0 372 -3
392 -56 427 -24 16 -58 19 -254 24 -192 5 -233 8 -280 26 -67 24 -146 32 -220
22z m205 -49 c32 -11 77 -31 100 -45 42 -24 145 -128 145 -146 0 -21 -29 -5
-83 45 -175 166 -416 167 -594 3 -62 -58 -104 -77 -83 -37 36 67 155 154 255
185 65 21 193 18 260 -5z m522 -46 c52 -39 53 -45 53 -386 l0 -317 -32 -25
c-29 -21 -45 -25 -135 -28 -99 -3 -104 -4 -133 -33 -42 -42 -70 -125 -70 -206
0 -57 -3 -69 -25 -89 l-24 -23 -273 7 c-356 9 -348 4 -348 215 l0 123 37 -32
c54 -48 147 -88 235 -101 145 -21 305 32 411 137 124 123 175 303 132 469 -26
99 -64 165 -143 243 l-73 74 180 -4 c164 -3 182 -5 208 -24z m-564 -9 c32 -8
75 -24 97 -35 54 -28 131 -109 163 -172 30 -60 52 -177 37 -192 -7 -7 -10 -4
-10 7 0 27 -48 67 -80 67 -35 0 -70 -34 -70 -68 0 -29 51 -82 80 -82 30 0 60
18 71 43 7 16 8 9 4 -28 -7 -68 -50 -149 -109 -208 -177 -177 -476 -143 -613
70 -191 299 88 687 430 598z m571 -790 c-70 -106 -204 -234 -292 -279 l-32
-17 20 33 c16 26 20 51 20 121 0 146 31 177 182 177 66 1 99 5 112 15 33 25
30 9 -10 -50z m-850 30 c115 -51 252 -51 365 1 29 13 65 24 80 24 l26 -1 -25
-20 c-63 -53 -173 -89 -268 -89 -85 0 -218 47 -257 90 -17 19 -17 20 2 20 11
0 46 -11 77 -25z"/>
<path d="M462 1138 c-48 -24 -41 -99 13 -125 53 -25 80 -8 83 50 2 38 -1 48
-24 66 -30 23 -39 25 -72 9z"/>
<path d="M250 1025 c-6 -8 -10 -21 -8 -29 2 -8 45 -60 96 -115 50 -54 92 -103
92 -108 0 -5 -29 -38 -65 -73 -40 -40 -65 -73 -65 -86 0 -21 37 -54 61 -54 6
0 41 29 78 65 37 36 74 65 83 65 21 0 58 43 58 67 0 24 -45 83 -63 83 -7 1
-59 46 -117 100 -58 55 -112 100 -121 100 -9 0 -22 -7 -29 -15z"/>
<path d="M140 820 c-29 -29 -25 -66 9 -101 35 -34 72 -38 101 -9 27 27 25 62
-6 99 -31 37 -74 41 -104 11z"/>
<path d="M468 528 c-51 -17 -54 -88 -6 -122 71 -50 143 27 88 96 -24 31 -46
38 -82 26z"/>
</g>
</svg>
